<?xml version="1.0" encoding="UTF-8"?>
<svg width="37px" height="37px" viewBox="0 0 37 37" version="1.1" xmlns="http://www.w3.org/2000/svg" xmlns:xlink="http://www.w3.org/1999/xlink">
    <title>data_02</title>
    <g id="Manufacturing-web-design" stroke="none" stroke-width="1" fill="none" fill-rule="evenodd">
        <g id="CVPR-Workshop_website(0214)" transform="translate(-1001.000000, -3820.000000)">
            <g id="data_02" transform="translate(1019.500000, 3838.500000) rotate(-180.000000) translate(-1019.500000, -3838.500000) translate(1001.000000, 3820.000000)">
                <path d="M37,18.5 C37,28.7162946 28.7162946,37 18.5,37 C8.28370536,37 0,28.7162946 0,18.5 C0,8.28370536 8.28370536,0 18.5,0 C28.7162946,0 37,8.28370536 37,18.5 Z" id="路径" fill="#1296DB" fill-rule="nonzero"></path>
                <g id="􀴿" transform="translate(9.000000, 8.000000)" fill="#FFFFFF">
                    <path d="M10.4892578,1.87207031 C11.0253906,1.87207031 11.4296875,1.46777344 11.4296875,0.940429688 C11.4296875,0.413085938 11.0166016,0 10.4892578,0 C9.97949219,0 9.55761719,0.421875 9.55761719,0.940429688 C9.55761719,1.45898438 9.97070312,1.87207031 10.4892578,1.87207031 Z M14.6904297,4.29785156 C15.2265625,4.29785156 15.6308594,3.89355469 15.6308594,3.35742188 C15.6308594,2.83886719 15.2177734,2.42578125 14.6904297,2.42578125 C14.1806641,2.42578125 13.7587891,2.84765625 13.7587891,3.35742188 C13.7587891,3.88476562 14.171875,4.29785156 14.6904297,4.29785156 Z M10.4892578,7.07519531 C11.2011719,7.07519531 11.7548828,6.52148438 11.7548828,5.81835938 C11.7548828,5.12402344 11.1835938,4.55273438 10.4892578,4.55273438 C9.80371094,4.55273438 9.23242188,5.1328125 9.23242188,5.81835938 C9.23242188,6.51269531 9.79492188,7.07519531 10.4892578,7.07519531 Z M18.8652344,6.75 C19.3925781,6.75 19.796875,6.34570312 19.796875,5.81835938 C19.796875,5.29101562 19.3837891,4.87792969 18.8652344,4.87792969 C18.3554688,4.87792969 17.9248047,5.30859375 17.9248047,5.81835938 C17.9248047,6.33691406 18.3378906,6.75 18.8652344,6.75 Z M6.28808594,9.50976562 C7,9.50976562 7.55371094,8.95605469 7.55371094,8.25292969 C7.55371094,7.55859375 6.98242188,6.98730469 6.28808594,6.98730469 C5.61132812,6.98730469 5.03125,7.56738281 5.03125,8.25292969 C5.03125,8.94726562 5.59375,9.50976562 6.28808594,9.50976562 Z M14.6904297,9.50976562 C15.4023438,9.50976562 15.9560547,8.95605469 15.9560547,8.25292969 C15.9560547,7.55859375 15.3847656,6.98730469 14.6904297,6.98730469 C14.0136719,6.98730469 13.4335938,7.56738281 13.4335938,8.25292969 C13.4335938,8.94726562 13.9960938,9.50976562 14.6904297,9.50976562 Z M10.4892578,12.1728516 C11.3154297,12.1728516 11.9658203,11.5136719 11.9658203,10.6962891 C11.9658203,9.88769531 11.3066406,9.21972656 10.4892578,9.21972656 C9.68945312,9.21972656 9.02148438,9.89648438 9.02148438,10.6962891 C9.02148438,11.5048828 9.68066406,12.1728516 10.4892578,12.1728516 Z M18.8652344,11.6279297 C19.3925781,11.6279297 19.796875,11.2236328 19.796875,10.6962891 C19.796875,10.1689453 19.3837891,9.75585938 18.8652344,9.75585938 C18.3554688,9.75585938 17.9248047,10.1865234 17.9248047,10.6962891 C17.9248047,11.2148438 18.3378906,11.6279297 18.8652344,11.6279297 Z M6.28808594,14.4052734 C7,14.4052734 7.55371094,13.8427734 7.55371094,13.1396484 C7.55371094,12.4453125 6.98242188,11.8740234 6.28808594,11.8740234 C5.60253906,11.8740234 5.03125,12.4541016 5.03125,13.1396484 C5.03125,13.8339844 5.59375,14.4052734 6.28808594,14.4052734 Z M14.6904297,14.4052734 C15.4023438,14.4052734 15.9560547,13.8427734 15.9560547,13.1396484 C15.9560547,12.4453125 15.3847656,11.8740234 14.6904297,11.8740234 C14.0048828,11.8740234 13.4335938,12.4541016 13.4335938,13.1396484 C13.4335938,13.8339844 13.9960938,14.4052734 14.6904297,14.4052734 Z M10.4892578,16.8398438 C11.2011719,16.8398438 11.7548828,16.2773438 11.7548828,15.5742188 C11.7548828,14.8798828 11.1835938,14.3085938 10.4892578,14.3085938 C9.8125,14.3085938 9.23242188,14.8886719 9.23242188,15.5742188 C9.23242188,16.2685547 9.79492188,16.8398438 10.4892578,16.8398438 Z M18.8652344,16.5146484 C19.3925781,16.5146484 19.796875,16.1103516 19.796875,15.5742188 C19.796875,15.0556641 19.3837891,14.6337891 18.8652344,14.6337891 C18.3554688,14.6337891 17.9248047,15.0644531 17.9248047,15.5742188 C17.9248047,16.0927734 18.3378906,16.5146484 18.8652344,16.5146484 Z M14.6904297,18.9667969 C15.2265625,18.9667969 15.6308594,18.5625 15.6308594,18.0351562 C15.6308594,17.5078125 15.2177734,17.0947266 14.6904297,17.0947266 C14.1806641,17.0947266 13.7587891,17.5166016 13.7587891,18.0351562 C13.7587891,18.5537109 14.171875,18.9667969 14.6904297,18.9667969 Z M10.4892578,21.3925781 C11.0253906,21.3925781 11.4296875,20.9882812 11.4296875,20.4521484 C11.4296875,19.9335938 11.0166016,19.5117188 10.4892578,19.5117188 C9.97949219,19.5117188 9.55761719,19.9423828 9.55761719,20.4521484 C9.55761719,20.9794922 9.97070312,21.3925781 10.4892578,21.3925781 Z" id="形状" fill-rule="nonzero"></path>
                    <path d="M10.5,0.0419921875 C10.6678815,0.0419921875 10.8348427,0.0460053198 11.0007963,0.0539425391 L11.0007963,21.4200418 C10.8348427,21.4279791 10.6678815,21.4319922 10.5,21.4319922 C4.70101013,21.4319922 0,16.6436776 0,10.7369922 C0,4.83030679 4.70101013,0.0419921875 10.5,0.0419921875 Z" id="形状结合"></path>
                </g>
            </g>
        </g>
    </g>
</svg>