<?xml version="1.0" encoding="UTF-8"?>
<svg width="37px" height="37px" viewBox="0 0 37 37" version="1.1" xmlns="http://www.w3.org/2000/svg" xmlns:xlink="http://www.w3.org/1999/xlink">
    <title>data_01</title>
    <g id="Manufacturing-web-design" stroke="none" stroke-width="1" fill="none" fill-rule="evenodd">
        <g id="CVPR-Workshop_website(0214)" transform="translate(-1001.000000, -3750.000000)" fill="#1296DB" fill-rule="nonzero">
            <g id="data_01" transform="translate(1001.000000, 3750.000000)">
                <path d="M26.8208705,18.6734375 C27.2792411,16.2907366 26.7837054,13.875 25.4209821,11.8639509 C24.0582589,9.85703125 21.9976563,8.4984375 19.6149554,8.04006696 C19.0450893,7.93270089 18.4669643,7.87488839 17.8929688,7.87488839 C13.5487723,7.87488839 9.80334821,10.9761161 8.98158482,15.2459821 C8.52321429,17.628683 9.02287946,20.0444196 10.3814732,22.0554688 C11.7441964,24.0623884 13.8047991,25.4209821 16.1875,25.8793527 C16.7573661,25.9908482 17.3354911,26.0445313 17.9136161,26.0445313 C19.2804688,26.0445313 20.6473214,25.7265625 21.8779018,25.1277902 C21.9109375,25.1979911 21.9481027,25.268192 21.9935268,25.3342634 L24.5827009,29.1581473 C24.8263393,29.5215402 25.2351562,29.7362723 25.6728795,29.7362723 C25.9330357,29.7362723 26.1890625,29.6578125 26.4079241,29.5091518 C27.0066964,29.1044643 27.1636161,28.2868304 26.7589286,27.6839286 L24.1697545,23.8641741 C24.1243304,23.7981027 24.0747768,23.7361607 24.0169643,23.6783482 C25.4787946,22.3486607 26.4492187,20.6225446 26.8208705,18.6734375 L26.8208705,18.6734375 Z M23.3438616,16.3113839 L22.3404018,15.5267857 C22.2041295,15.3905134 22.0059152,15.2996652 21.7829241,15.2790179 C21.7416295,15.2748884 21.7003348,15.2707589 21.6549107,15.2748884 L21.6507812,15.2748884 C21.4484375,15.2748884 21.2584821,15.3285714 21.105692,15.4276786 C20.9405134,15.5309152 20.8331473,15.6837054 20.8083705,15.8530134 L19.9164062,17.9507812 L18.4752232,13.474442 C18.3761161,13.1853795 18.0375,12.9830357 17.6493304,12.9830357 L17.6204241,12.9830357 C17.2735491,12.9830357 16.9679687,13.1399554 16.8358259,13.3835937 L16.8316964,13.3918527 L14.9362723,17.8392857 L13.2142857,16.5095982 C13.0532366,16.3857143 12.8426339,16.3196429 12.6155134,16.3196429 L11.4799107,16.3196429 C11.500558,16.1296875 11.5253348,15.9356027 11.5625,15.7456473 C12.1447545,12.7104911 14.8082589,10.5053571 17.8970982,10.5053571 C18.3059152,10.5053571 18.7188616,10.5466518 19.1235491,10.6209821 C20.8166295,10.9472098 22.2825893,11.909375 23.2488839,13.3381696 C23.8600446,14.2383929 24.227567,15.2583705 24.3308036,16.3113839 L23.3438616,16.3113839 L23.3438616,16.3113839 Z M12.25625,17.6410714 L14.6926339,19.5241071 C14.853683,19.6479911 15.0684152,19.7140625 15.2955357,19.7140625 L15.3203125,19.7140625 C15.663058,19.7140625 15.9686384,19.5571429 16.1007812,19.3135045 L16.1049107,19.3052455 L17.5254464,15.9727679 L18.9748884,20.4738839 C19.0698661,20.7629464 19.4084821,20.9652902 19.7966518,20.9652902 L19.8131696,20.9652902 C20.2219866,20.9652902 20.5688616,20.7422991 20.643192,20.4325893 L22.030692,17.1703125 L22.369308,17.4345982 C22.4395089,17.4882812 22.5220982,17.5337054 22.608817,17.5626116 C22.7327009,17.6121652 22.8648437,17.636942 23.0011161,17.636942 L24.3225446,17.636942 C24.3018973,17.8186384 24.2771205,17.9962054 24.2440848,18.1779018 C23.6618304,21.213058 20.9983259,23.418192 17.9136161,23.418192 C17.5047991,23.418192 17.0918527,23.3768973 16.6871652,23.302567 C14.9940848,22.9763393 13.528125,22.0141741 12.5618304,20.5853795 C11.9589286,19.6934152 11.5914063,18.6858259 11.4840402,17.6452009 L12.25625,17.6410714 L12.25625,17.6410714 Z M37,18.5 C37,28.7162946 28.7162946,37 18.5,37 C8.28370536,37 0,28.7162946 0,18.5 C0,8.28370536 8.28370536,0 18.5,0 C28.7162946,0 37,8.28370536 37,18.5 Z" id="形状"></path>
            </g>
        </g>
    </g>
</svg>