<?xml version="1.0" encoding="UTF-8"?>
<svg width="13.2822266px" height="13.2822266px" viewBox="0 0 13.2822266 13.2822266" version="1.1" xmlns="http://www.w3.org/2000/svg" xmlns:xlink="http://www.w3.org/1999/xlink">
    <title>􀁸</title>
    <g id="CVPR-Workshop_website" stroke="none" stroke-width="1" fill="none" fill-rule="evenodd">
        <g id="CVPR-Workshop_website(0719)" transform="translate(-523.1553, -3162.6934)" fill="#008EFF" fill-rule="nonzero">
            <g id="编组-14" transform="translate(240, 2641)">
                <g id="编组-18备份-11" transform="translate(182, 519)">
                    <g id="􀁸" transform="translate(101.1553, 2.6934)">
                        <path d="M6.64453125,13.2822266 C7.55143229,13.2822266 8.40592448,13.1079102 9.20800781,12.7592773 C10.0100911,12.4106445 10.7164714,11.9309896 11.3271484,11.3203125 C11.9378255,10.7096354 12.4163411,10.0043945 12.7626953,9.20458984 C13.1090495,8.40478516 13.2822266,7.54915365 13.2822266,6.63769531 C13.2822266,5.73079427 13.1079102,4.87630208 12.7592773,4.07421875 C12.4106445,3.27213542 11.9309896,2.56461589 11.3203125,1.95166016 C10.7096354,1.33870443 10.0032552,0.860188802 9.20117188,0.516113281 C8.39908854,0.17203776 7.54459635,0 6.63769531,0 C5.73079427,0 4.87744141,0.17203776 4.07763672,0.516113281 C3.27783203,0.860188802 2.57145182,1.33870443 1.95849609,1.95166016 C1.34554036,2.56461589 0.865885417,3.27213542 0.51953125,4.07421875 C0.173177083,4.87630208 0,5.73079427 0,6.63769531 C0,7.54915365 0.174316406,8.40478516 0.522949219,9.20458984 C0.871582031,10.0043945 1.35123698,10.7096354 1.96191406,11.3203125 C2.57259115,11.9309896 3.27783203,12.4106445 4.07763672,12.7592773 C4.87744141,13.1079102 5.73307292,13.2822266 6.64453125,13.2822266 Z M6.64453125,12.0654297 C5.89257812,12.0654297 5.18847656,11.925293 4.53222656,11.6450195 C3.87597656,11.3647461 3.29947917,10.976237 2.80273438,10.4794922 C2.30598958,9.9827474 1.91861979,9.40625 1.640625,8.75 C1.36263021,8.09375 1.22363281,7.38964844 1.22363281,6.63769531 C1.22363281,5.88574219 1.36263021,5.18164062 1.640625,4.52539062 C1.91861979,3.86914062 2.30598958,3.29264323 2.80273438,2.79589844 C3.29947917,2.29915365 3.87483724,1.91178385 4.52880859,1.63378906 C5.18277995,1.35579427 5.88574219,1.21679688 6.63769531,1.21679688 C7.38964844,1.21679688 8.09488932,1.35579427 8.75341797,1.63378906 C9.41194661,1.91178385 9.98958333,2.29915365 10.4863281,2.79589844 C10.9830729,3.29264323 11.3704427,3.86914062 11.6484375,4.52539062 C11.9264323,5.18164062 12.0654297,5.88574219 12.0654297,6.63769531 C12.0654297,7.38964844 11.9264323,8.09375 11.6484375,8.75 C11.3704427,9.40625 10.9830729,9.9827474 10.4863281,10.4794922 C9.98958333,10.976237 9.41308594,11.3647461 8.75683594,11.6450195 C8.10058594,11.925293 7.39648437,12.0654297 6.64453125,12.0654297 Z M6.63769531,3.32910156 C6.48730469,3.32910156 6.36197917,3.37923177 6.26171875,3.47949219 C6.16145833,3.5797526 6.11132812,3.70507812 6.11132812,3.85546875 L6.11132812,6.99316406 L6.16601562,8.33300781 L5.55078125,7.58789062 L4.80566406,6.82226562 C4.70540365,6.72200521 4.58235677,6.671875 4.43652344,6.671875 C4.2952474,6.671875 4.17675781,6.71858724 4.08105469,6.81201172 C3.98535156,6.9054362 3.9375,7.02278646 3.9375,7.1640625 C3.9375,7.30989583 3.98535156,7.43066406 4.08105469,7.52636719 L6.22753906,9.6796875 C6.35970052,9.81184896 6.49641927,9.87792969 6.63769531,9.87792969 C6.78808594,9.87792969 6.92936198,9.81184896 7.06152344,9.6796875 L9.20800781,7.52636719 C9.30371094,7.42610677 9.3515625,7.30533854 9.3515625,7.1640625 C9.3515625,7.02278646 9.30371094,6.9054362 9.20800781,6.81201172 C9.11230469,6.71858724 8.9938151,6.671875 8.85253906,6.671875 C8.69759115,6.671875 8.57226562,6.72200521 8.4765625,6.82226562 L7.73828125,7.58789062 L7.11621094,8.33984375 L7.17089844,6.99316406 L7.17089844,3.85546875 C7.17089844,3.70507812 7.12076823,3.5797526 7.02050781,3.47949219 C6.9202474,3.37923177 6.79264323,3.32910156 6.63769531,3.32910156 Z" id="形状"></path>
                    </g>
                </g>
            </g>
        </g>
    </g>
</svg>