<?xml version="1.0" encoding="UTF-8"?>
<svg width="25px" height="30px" viewBox="0 0 25 30" version="1.1" xmlns="http://www.w3.org/2000/svg" xmlns:xlink="http://www.w3.org/1999/xlink">
    <title>first</title>
    <g id="Manufacturing-web-design" stroke="none" stroke-width="1" fill="none" fill-rule="evenodd">
        <g id="CVPR-Workshop_website(0317)_finally" transform="translate(-308.000000, -4097.000000)" fill="#1296DB" fill-rule="nonzero">
            <g id="first" transform="translate(308.000000, 4097.000000)">
                <path d="M13.3986928,4.84363638 C12.2830503,4.72499994 11.1569576,4.75525613 10.0490196,4.93363638 L10.0490196,0 L13.3986928,0 L13.3986928,4.84363638 Z M20.0980392,7.68272728 C19.0888241,6.84459574 17.9590912,6.1692194 16.748366,5.68022728 L16.748366,0 L18.0882353,0 C19.1982193,0 20.0980392,0.915781196 20.0980392,2.04545455 L20.0980392,7.68272728 L20.0980392,7.68272728 Z M6.69934641,5.9734091 C5.46933178,6.55602141 4.33855473,7.33467648 3.34967319,8.28 L3.34967319,2.04545455 C3.34967319,0.915781196 4.24949306,0 5.35947712,0 L6.69934641,0 L6.69934641,5.9734091 L6.69934641,5.9734091 Z M12.0588235,30 C5.39900326,30 0,24.5052273 0,17.7272727 C0,10.9493182 5.39900326,5.45454545 12.0588235,5.45454545 C18.7186438,5.45454545 24.1176471,10.9493182 24.1176471,17.7272727 C24.1176471,24.5052273 18.7186438,30 12.0588235,30 Z M12.0588235,27.2727273 C17.2387582,27.2727273 21.4379085,22.9990909 21.4379085,17.7272727 C21.4379085,12.4554546 17.2387582,8.18181817 12.0588235,8.18181817 C6.8788889,8.18181817 2.67973856,12.4554546 2.67973856,17.7272727 C2.67973856,22.9990909 6.8788889,27.2727273 12.0588235,27.2727273 Z M12.0588235,26.5909091 C7.24869281,26.5909091 3.34967319,22.6227273 3.34967319,17.7272727 C3.34967319,12.8318182 7.24869281,8.86363638 12.0588235,8.86363638 C16.8689543,8.86363638 20.7679739,12.8318182 20.7679739,17.7272727 C20.7679739,22.6227272 16.8689543,26.5909091 12.0588235,26.5909091 Z M10.086536,15.2754546 L11.4404739,14.2636364 L11.4404739,22.5 L12.8078105,22.5 L12.8078105,12.7922727 L11.4411438,12.7922727 L10.086536,13.7972727 L10.086536,15.2754546 Z" id="形状"></path>
            </g>
        </g>
    </g>
</svg>