<?xml version="1.0" encoding="UTF-8"?>
<svg width="25px" height="30px" viewBox="0 0 25 30" version="1.1" xmlns="http://www.w3.org/2000/svg" xmlns:xlink="http://www.w3.org/1999/xlink">
    <title>Most Innovative</title>
    <g id="Manufacturing-web-design" stroke="none" stroke-width="1" fill="none" fill-rule="evenodd">
        <g id="CVPR-Workshop_website(0317)_finally" transform="translate(-1074.000000, -4097.000000)" fill-rule="nonzero">
            <g id="Most-Innovative" transform="translate(1074.000000, 4097.000000)">
                <path d="M13.3986928,4.84363638 C12.2830503,4.72499994 11.1569576,4.75525613 10.0490196,4.93363638 L10.0490196,0 L13.3986928,0 L13.3986928,4.84363638 Z M20.0980392,7.68272728 C19.0888241,6.84459574 17.9590912,6.1692194 16.748366,5.68022728 L16.748366,0 L18.0882353,0 C19.1982193,0 20.0980392,0.915781196 20.0980392,2.04545455 L20.0980392,7.68272728 L20.0980392,7.68272728 Z M6.69934641,5.9734091 C5.46933178,6.55602141 4.33855473,7.33467648 3.34967319,8.28 L3.34967319,2.04545455 C3.34967319,0.915781196 4.24949306,0 5.35947712,0 L6.69934641,0 L6.69934641,5.9734091 L6.69934641,5.9734091 Z M12.0588235,30 C5.39900326,30 0,24.5052273 0,17.7272727 C0,10.9493182 5.39900326,5.45454545 12.0588235,5.45454545 C18.7186438,5.45454545 24.1176471,10.9493182 24.1176471,17.7272727 C24.1176471,24.5052273 18.7186438,30 12.0588235,30 Z M12.0588235,27.2727273 C17.2387582,27.2727273 21.4379085,22.9990909 21.4379085,17.7272727 C21.4379085,12.4554546 17.2387582,8.18181817 12.0588235,8.18181817 C6.8788889,8.18181817 2.67973856,12.4554546 2.67973856,17.7272727 C2.67973856,22.9990909 6.8788889,27.2727273 12.0588235,27.2727273 Z M12.0588235,26.5909091 C7.24869281,26.5909091 3.34967319,22.6227273 3.34967319,17.7272727 C3.34967319,12.8318182 7.24869281,8.86363638 12.0588235,8.86363638 C16.8689543,8.86363638 20.7679739,12.8318182 20.7679739,17.7272727 C20.7679739,22.6227272 16.8689543,26.5909091 12.0588235,26.5909091 Z" id="形状" fill="#1296DB"></path>
                <g id="创新" transform="translate(6.470588, 11.764706)" fill="#FFFFFF">
                    <path d="M6.38655462,10.5882353 C6.60700442,10.5882353 6.78571429,10.7638099 6.78571429,10.9803922 L6.78571429,11.372549 C6.78571429,11.5891313 6.60700442,11.7647059 6.38655462,11.7647059 L4.78991597,11.7647059 C4.56946617,11.7647059 4.3907563,11.5891313 4.3907563,11.372549 L4.3907563,10.9803922 C4.3907563,10.7638099 4.56946617,10.5882353 4.78991597,10.5882353 L6.38655462,10.5882353 Z M5.58823529,2.35294118 C7.35183365,2.35294118 8.78151261,3.75753804 8.78151261,5.49019608 C8.78151261,6.49843137 8.28655462,7.37647059 7.29743697,8.12470588 L7.18567227,8.20745098 L7.18487395,9.00588235 C7.18465371,9.44653758 6.82110811,9.80370519 6.37258403,9.80392157 L5.98739496,9.80392157 L5.98779412,6.16941176 C6.29556253,5.99478308 6.44876315,5.64129557 6.36360064,5.30229444 C6.27843812,4.96329332 5.97542415,4.72042815 5.62029669,4.70653763 C5.26516923,4.69264711 4.94346193,4.91107682 4.83113736,5.2423534 C4.71881279,5.57362998 4.84292469,5.93796435 5.13558824,6.13607843 L5.18907563,6.16941176 L5.18907563,9.80392157 L4.80388655,9.80392157 C4.35527122,9.80392157 3.99159664,9.44662724 3.99159664,9.00588235 L3.99159664,9.0854902 C3.97784339,8.56843426 3.76384966,8.0760055 3.3932563,7.70862745 C2.72785714,7.05647059 2.39495798,6.3172549 2.39495798,5.49019608 C2.39495798,3.75753804 3.82463693,2.35294118 5.58823529,2.35294118 Z M10.7773109,5.09803922 C10.9977607,5.09803922 11.1764706,5.27361382 11.1764706,5.49019608 C11.1764706,5.70677833 10.9977607,5.88235294 10.7773109,5.88235294 L9.9789916,5.88235294 C9.7585418,5.88235294 9.57983193,5.70677833 9.57983193,5.49019608 C9.57983193,5.27361382 9.7585418,5.09803922 9.9789916,5.09803922 L10.7773109,5.09803922 Z M1.19747899,5.09803922 C1.41792879,5.09803922 1.59663866,5.27361382 1.59663866,5.49019608 C1.59663866,5.70677833 1.41792879,5.88235294 1.19747899,5.88235294 L0.399159664,5.88235294 C0.178709869,5.88235294 0,5.70677833 0,5.49019608 C0,5.27361382 0.178709869,5.09803922 0.399159664,5.09803922 L1.19747899,5.09803922 Z M9.53991597,1.60784314 C9.61486899,1.68139932 9.65698417,1.78121206 9.65698417,1.88529412 C9.65698417,1.98937618 9.61486899,2.08918892 9.53991597,2.1627451 L8.97510504,2.7172549 C8.81848322,2.86587145 8.56952498,2.86374603 8.41555561,2.71247787 C8.26158624,2.56120972 8.25942286,2.31661917 8.41069328,2.1627451 L8.97510504,1.60784314 C9.13097683,1.45475218 9.38364502,1.45475218 9.53951681,1.60784314 L9.53991597,1.60784314 Z M2.20136555,1.60784314 L2.76577731,2.1627451 C2.91704773,2.31661917 2.91488435,2.56120972 2.76091498,2.71247787 C2.6069456,2.86374603 2.35798737,2.86587145 2.20136555,2.7172549 L1.63655462,2.1627451 C1.4805864,2.00951315 1.4805864,1.76107509 1.63655463,1.60784314 C1.79252285,1.4546112 2.04539732,1.4546112 2.20136555,1.60784314 L2.20136555,1.60784314 Z M5.58823529,0 C5.80868509,0 5.98739496,0.175574608 5.98739496,0.392156863 L5.98739496,1.17647059 C5.98739496,1.39305284 5.80868509,1.56862745 5.58823529,1.56862745 C5.3677855,1.56862745 5.18907563,1.39305284 5.18907563,1.17647059 L5.18907563,0.392156863 C5.18907563,0.175574608 5.3677855,0 5.58823529,0 Z" id="形状"></path>
                </g>
            </g>
        </g>
    </g>
</svg>