<?xml version="1.0" encoding="UTF-8"?>
<svg width="13.2822266px" height="13.2822266px" viewBox="0 0 13.2822266 13.2822266" version="1.1" xmlns="http://www.w3.org/2000/svg" xmlns:xlink="http://www.w3.org/1999/xlink">
    <title>􀊕</title>
    <g id="CVPR-Workshop_website" stroke="none" stroke-width="1" fill="none" fill-rule="evenodd">
        <g id="CVPR-Workshop_website(0719)" transform="translate(-683.1553, -3162.6934)" fill="#008EFF" fill-rule="nonzero">
            <g id="编组-14" transform="translate(240, 2641)">
                <g id="编组-18备份-11" transform="translate(182, 519)">
                    <g id="􀊕" transform="translate(261.1553, 2.6934)">
                        <path d="M6.64453125,13.2822266 C7.55143229,13.2822266 8.40592448,13.1079102 9.20800781,12.7592773 C10.0100911,12.4106445 10.7164714,11.9309896 11.3271484,11.3203125 C11.9378255,10.7096354 12.4163411,10.0043945 12.7626953,9.20458984 C13.1090495,8.40478516 13.2822266,7.54915365 13.2822266,6.63769531 C13.2822266,5.73079427 13.1079102,4.87630208 12.7592773,4.07421875 C12.4106445,3.27213542 11.9309896,2.56461589 11.3203125,1.95166016 C10.7096354,1.33870443 10.0032552,0.860188802 9.20117188,0.516113281 C8.39908854,0.17203776 7.54459635,0 6.63769531,0 C5.73079427,0 4.87744141,0.17203776 4.07763672,0.516113281 C3.27783203,0.860188802 2.57145182,1.33870443 1.95849609,1.95166016 C1.34554036,2.56461589 0.865885417,3.27213542 0.51953125,4.07421875 C0.173177083,4.87630208 0,5.73079427 0,6.63769531 C0,7.54915365 0.174316406,8.40478516 0.522949219,9.20458984 C0.871582031,10.0043945 1.35123698,10.7096354 1.96191406,11.3203125 C2.57259115,11.9309896 3.27783203,12.4106445 4.07763672,12.7592773 C4.87744141,13.1079102 5.73307292,13.2822266 6.64453125,13.2822266 Z M6.64453125,12.0654297 C5.89257812,12.0654297 5.18847656,11.925293 4.53222656,11.6450195 C3.87597656,11.3647461 3.29947917,10.976237 2.80273438,10.4794922 C2.30598958,9.9827474 1.91861979,9.40625 1.640625,8.75 C1.36263021,8.09375 1.22363281,7.38964844 1.22363281,6.63769531 C1.22363281,5.88574219 1.36263021,5.18164062 1.640625,4.52539062 C1.91861979,3.86914062 2.30598958,3.29264323 2.80273438,2.79589844 C3.29947917,2.29915365 3.87483724,1.91178385 4.52880859,1.63378906 C5.18277995,1.35579427 5.88574219,1.21679688 6.63769531,1.21679688 C7.38964844,1.21679688 8.09488932,1.35579427 8.75341797,1.63378906 C9.41194661,1.91178385 9.98958333,2.29915365 10.4863281,2.79589844 C10.9830729,3.29264323 11.3704427,3.86914062 11.6484375,4.52539062 C11.9264323,5.18164062 12.0654297,5.88574219 12.0654297,6.63769531 C12.0654297,7.38964844 11.9264323,8.09375 11.6484375,8.75 C11.3704427,9.40625 10.9830729,9.9827474 10.4863281,10.4794922 C9.98958333,10.976237 9.41308594,11.3647461 8.75683594,11.6450195 C8.10058594,11.925293 7.39648437,12.0654297 6.64453125,12.0654297 Z M5.46875,9.17382812 L9.09863281,7.02734375 C9.19889323,6.96809896 9.26497396,6.88948568 9.296875,6.79150391 C9.32877604,6.69352214 9.32877604,6.59554036 9.296875,6.49755859 C9.26497396,6.39957682 9.19889323,6.32096354 9.09863281,6.26171875 L5.46875,4.10839844 C5.36848958,4.04915365 5.26367188,4.02522786 5.15429688,4.03662109 C5.04492188,4.04801432 4.95263672,4.0867513 4.87744141,4.15283203 C4.80224609,4.21891276 4.76464844,4.31119792 4.76464844,4.4296875 L4.76464844,8.859375 C4.76464844,8.97330729 4.79996745,9.06559245 4.87060547,9.13623047 C4.94124349,9.20686849 5.03125,9.24674479 5.140625,9.25585938 C5.25,9.26497396 5.359375,9.23763021 5.46875,9.17382812 Z" id="形状"></path>
                    </g>
                </g>
            </g>
        </g>
    </g>
</svg>