<?xml version="1.0" encoding="UTF-8"?>
<svg width="25px" height="30px" viewBox="0 0 25 30" version="1.1" xmlns="http://www.w3.org/2000/svg" xmlns:xlink="http://www.w3.org/1999/xlink">
    <title>second</title>
    <g id="Manufacturing-web-design" stroke="none" stroke-width="1" fill="none" fill-rule="evenodd">
        <g id="CVPR-Workshop_website(0317)_finally" transform="translate(-561.000000, -4097.000000)" fill="#1296DB" fill-rule="nonzero">
            <g id="second" transform="translate(561.000000, 4097.000000)">
                <path d="M13.3986928,4.84363638 C12.2830503,4.72499994 11.1569576,4.75525613 10.0490196,4.93363638 L10.0490196,0 L13.3986928,0 L13.3986928,4.84363638 Z M20.0980392,7.68272728 C19.0888241,6.84459574 17.9590912,6.1692194 16.748366,5.68022728 L16.748366,0 L18.0882353,0 C19.1982193,0 20.0980392,0.915781196 20.0980392,2.04545455 L20.0980392,7.68272728 L20.0980392,7.68272728 Z M6.69934641,5.9734091 C5.46933178,6.55602141 4.33855473,7.33467648 3.34967319,8.28 L3.34967319,2.04545455 C3.34967319,0.915781196 4.24949306,0 5.35947712,0 L6.69934641,0 L6.69934641,5.9734091 L6.69934641,5.9734091 Z M12.0588235,30 C5.39900326,30 0,24.5052273 0,17.7272727 C0,10.9493182 5.39900326,5.45454545 12.0588235,5.45454545 C18.7186438,5.45454545 24.1176471,10.9493182 24.1176471,17.7272727 C24.1176471,24.5052273 18.7186438,30 12.0588235,30 Z M12.0588235,27.2727273 C17.2387582,27.2727273 21.4379085,22.9990909 21.4379085,17.7272727 C21.4379085,12.4554546 17.2387582,8.18181817 12.0588235,8.18181817 C6.8788889,8.18181817 2.67973856,12.4554546 2.67973856,17.7272727 C2.67973856,22.9990909 6.8788889,27.2727273 12.0588235,27.2727273 Z M12.0588235,26.5909091 C7.24869281,26.5909091 3.34967319,22.6227273 3.34967319,17.7272727 C3.34967319,12.8318182 7.24869281,8.86363638 12.0588235,8.86363638 C16.8689543,8.86363638 20.7679739,12.8318182 20.7679739,17.7272727 C20.7679739,22.6227272 16.8689543,26.5909091 12.0588235,26.5909091 Z M9.27524509,21.1881818 L9.27524509,22.5 L14.7117647,22.5 L14.7117647,21.1084091 L11.0673203,21.1084091 L14.1356209,17.1934091 C14.5201634,16.6956818 14.7117647,16.1277273 14.7117647,15.4888636 C14.7030556,14.6897727 14.4391013,14.0304545 13.9199019,13.5115909 C13.4100817,12.9872727 12.7448366,12.7206818 11.9248366,12.7125 C11.1919281,12.7213636 10.5749183,12.9831818 10.0731372,13.4979546 C9.57604573,14.0263637 9.30941176,14.6938637 9.27524509,15.5025 L10.6358823,15.5025 C10.6841176,15.0579546 10.8368627,14.7143182 11.0941177,14.4702273 C11.3419935,14.2261364 11.654183,14.1040909 12.0293464,14.1040909 C12.4527451,14.1129545 12.7796732,14.2527273 13.0108006,14.5234091 C13.2332189,14.7940909 13.3444281,15.1111364 13.3444281,15.4752273 C13.3444281,15.6129546 13.3270098,15.7595454 13.2921732,15.915 C13.2399183,16.0786364 13.1414379,16.2565909 12.997402,16.4475 L9.27524509,21.1881818 L9.27524509,21.1881818 Z" id="形状"></path>
            </g>
        </g>
    </g>
</svg>