<?xml version="1.0" encoding="UTF-8"?>
<svg width="25px" height="30px" viewBox="0 0 25 30" version="1.1" xmlns="http://www.w3.org/2000/svg" xmlns:xlink="http://www.w3.org/1999/xlink">
    <title>third</title>
    <g id="Manufacturing-web-design" stroke="none" stroke-width="1" fill="none" fill-rule="evenodd">
        <g id="CVPR-Workshop_website(0317)_finally" transform="translate(-822.000000, -4097.000000)" fill="#1296DB" fill-rule="nonzero">
            <g id="third" transform="translate(822.000000, 4097.000000)">
                <path d="M13.3986928,4.84363638 C12.2830503,4.72499994 11.1569576,4.75525613 10.0490196,4.93363638 L10.0490196,0 L13.3986928,0 L13.3986928,4.84363638 Z M20.0980392,7.68272728 C19.0888241,6.84459574 17.9590912,6.1692194 16.748366,5.68022728 L16.748366,0 L18.0882353,0 C19.1982193,0 20.0980392,0.915781196 20.0980392,2.04545455 L20.0980392,7.68272728 L20.0980392,7.68272728 Z M6.69934641,5.9734091 C5.46933178,6.55602141 4.33855473,7.33467648 3.34967319,8.28 L3.34967319,2.04545455 C3.34967319,0.915781196 4.24949306,0 5.35947712,0 L6.69934641,0 L6.69934641,5.9734091 L6.69934641,5.9734091 Z M12.0588235,30 C5.39900326,30 0,24.5052273 0,17.7272727 C0,10.9493182 5.39900326,5.45454545 12.0588235,5.45454545 C18.7186438,5.45454545 24.1176471,10.9493182 24.1176471,17.7272727 C24.1176471,24.5052273 18.7186438,30 12.0588235,30 Z M12.0588235,27.2727273 C17.2387582,27.2727273 21.4379085,22.9990909 21.4379085,17.7272727 C21.4379085,12.4554546 17.2387582,8.18181817 12.0588235,8.18181817 C6.8788889,8.18181817 2.67973856,12.4554546 2.67973856,17.7272727 C2.67973856,22.9990909 6.8788889,27.2727273 12.0588235,27.2727273 Z M12.0588235,26.5909091 C7.24869281,26.5909091 3.34967319,22.6227273 3.34967319,17.7272727 C3.34967319,12.8318182 7.24869281,8.86363638 12.0588235,8.86363638 C16.8689543,8.86363638 20.7679739,12.8318182 20.7679739,17.7272727 C20.7679739,22.6227272 16.8689543,26.5909091 12.0588235,26.5909091 Z M11.1986274,16.8804546 L11.1986274,18.1118182 L11.7747713,18.1118182 C12.1968301,18.1118182 12.546536,18.2434091 12.8212092,18.5052273 C13.099902,18.7759091 13.2439379,19.1577273 13.2526471,19.6506818 C13.2439379,20.1340909 13.099902,20.5070454 12.8212092,20.7688636 C12.546536,21.0484091 12.208219,21.1881818 11.8069281,21.1881818 C11.4317647,21.1881818 11.1302941,21.0838637 10.9038562,20.8752273 C10.6814379,20.6754546 10.5092647,20.4136364 10.3873366,20.0897727 L9.02,20.0897727 C9.16805556,20.8977273 9.49297384,21.5147727 9.99475489,21.9409091 C10.475697,22.3592458 11.0892139,22.5861901 11.7218464,22.5797727 C12.5639542,22.5709091 13.2526471,22.2981818 13.7892647,21.7609091 C14.3345915,21.2372727 14.6112745,20.52 14.6199836,19.6104546 C14.6199836,19.2013637 14.534902,18.8113637 14.3654085,18.4384091 C14.185866,18.0654546 13.8964543,17.7456818 13.4944935,17.4797727 C13.8870752,17.2090909 14.1597386,16.9002273 14.3124837,16.5538636 C14.4429439,16.209781 14.509502,15.844038 14.5087745,15.4752273 C14.5094348,14.7627718 14.2427179,14.0769571 13.7631372,13.5579546 C13.2526471,13.0029546 12.5639542,12.7213637 11.695719,12.7124991 C11.0329034,12.7119326 10.3971702,12.9801094 9.92910131,13.4577273 C9.4279902,13.9506818 9.14192809,14.5568182 9.07225491,15.2754546 L10.4395915,15.2754546 C10.526683,14.8759091 10.6968464,14.5806818 10.9500817,14.3897727 C11.1899183,14.1988636 11.4558823,14.1034091 11.7479739,14.1034091 C12.1539543,14.1129546 12.484902,14.2438637 12.7428268,14.4968182 C13.0000817,14.7586363 13.1327288,15.0934091 13.1414379,15.5018182 C13.1414379,15.9061363 13.0128104,16.2347727 12.7555555,16.4877273 C12.4983007,16.7495454 12.1365359,16.8804546 11.6695915,16.8804546 L11.1986274,16.8804546 L11.1986274,16.8804546 Z" id="形状"></path>
            </g>
        </g>
    </g>
</svg>